<svg xmlns="http://www.w3.org/2000/svg" data-name="Calque 1" viewBox="0 0 650 200"><path d="M231.15 89.5h-31.46V36.58h12.16v40.76h19.3zM269.09 48.82h-21.74v8H265V69h-17.65v8.36h21.74V89.5h-33.91V36.66h33.91zm-22.68-16.56l5.84-12.16h10.94l-5.9 12.16zM297.07 36.58a25.65 25.65 0 0 1 10.29 2.09 27.46 27.46 0 0 1 8.41 5.65 26.7 26.7 0 0 1 5.68 8.39 26.52 26.52 0 0 1 0 20.59 26.47 26.47 0 0 1-5.68 8.39 27.11 27.11 0 0 1-8.41 5.65 26.35 26.35 0 0 1-20.57 0 26.37 26.37 0 0 1-14-14 26.52 26.52 0 0 1 0-20.59 26.37 26.37 0 0 1 14-14 25.61 25.61 0 0 1 10.28-2.17zm0 40.68a13.88 13.88 0 0 0 5.54-1.11 14.48 14.48 0 0 0 4.54-3.06 14.31 14.31 0 0 0 3.06-4.54 14.29 14.29 0 0 0 0-11.09 14.35 14.35 0 0 0-7.6-7.59 14.26 14.26 0 0 0-11.08 0 14.35 14.35 0 0 0-7.6 7.59 14.29 14.29 0 0 0 0 11.09 14.31 14.31 0 0 0 3.07 4.54 14.48 14.48 0 0 0 4.54 3.06 13.88 13.88 0 0 0 5.57 1.11zM222.51 161.43a26.89 26.89 0 0 1-10-1.91 25.41 25.41 0 0 1-8.75-5.79 26.67 26.67 0 0 1-5.72-8.61 26.39 26.39 0 0 1 5.72-28.83 25.74 25.74 0 0 1 8.78-5.83 26.78 26.78 0 0 1 10-1.95 26.45 26.45 0 0 1 9.93 1.95 25.82 25.82 0 0 1 8.75 5.83l-8.57 8.57a13.65 13.65 0 0 0-4.75-3.13 14.65 14.65 0 0 0-5.4-1 14.33 14.33 0 0 0-5.36 1 13.72 13.72 0 0 0-4.72 3.13 15 15 0 0 0-3.1 4.68 14 14 0 0 0-1.08 5.47 13.86 13.86 0 0 0 1.08 5.44 15.22 15.22 0 0 0 3.1 4.64 13.72 13.72 0 0 0 4.72 3.13 14.32 14.32 0 0 0 5.36 1 14.63 14.63 0 0 0 5.4-1 13.65 13.65 0 0 0 4.75-3.13l8.57 8.64a25.54 25.54 0 0 1-8.71 5.79 26.82 26.82 0 0 1-10 1.91z"/><path d="M266.62 108.58a25.61 25.61 0 0 1 10.28 2.09 27.34 27.34 0 0 1 8.41 5.65 26.53 26.53 0 0 1 5.68 8.39 26.4 26.4 0 0 1 0 20.59 26.31 26.31 0 0 1-5.68 8.39 27 27 0 0 1-8.41 5.65 26.33 26.33 0 0 1-20.56 0 26.37 26.37 0 0 1-14-14 26.4 26.4 0 0 1 0-20.59 26.37 26.37 0 0 1 14-14 25.61 25.61 0 0 1 10.28-2.17zm0 40.68a14 14 0 0 0 5.55-1.11 14.35 14.35 0 0 0 7.59-7.6 14.29 14.29 0 0 0 0-11.09 14.38 14.38 0 0 0-3.06-4.53 14.16 14.16 0 0 0-4.53-3.06 14.29 14.29 0 0 0-11.09 0 14.16 14.16 0 0 0-4.53 3.06 14.38 14.38 0 0 0-3.06 4.53 14.29 14.29 0 0 0 0 11.09 14.35 14.35 0 0 0 7.59 7.6 14 14 0 0 0 5.57 1.11zM329.21 161.5h-31.46v-52.92h12.17v40.76h19.29zM356 108.58a25.61 25.61 0 0 1 10.28 2.09 27.34 27.34 0 0 1 8.41 5.65 26.53 26.53 0 0 1 5.68 8.39 26.4 26.4 0 0 1 0 20.59 26.31 26.31 0 0 1-5.68 8.39 27 27 0 0 1-8.41 5.65 26.33 26.33 0 0 1-20.56 0 26.37 26.37 0 0 1-14-14 26.4 26.4 0 0 1 0-20.59 26.37 26.37 0 0 1 14-14 25.61 25.61 0 0 1 10.28-2.17zm0 40.68a14 14 0 0 0 5.54-1.11 14.48 14.48 0 0 0 4.54-3.06 14.65 14.65 0 0 0 3.06-4.54 14.41 14.41 0 0 0 0-11.09 14.72 14.72 0 0 0-3.06-4.53 14.31 14.31 0 0 0-4.54-3.06 14.29 14.29 0 0 0-11.09 0 14.16 14.16 0 0 0-4.53 3.06 14.38 14.38 0 0 0-3.06 4.53 14.29 14.29 0 0 0 0 11.09 14.35 14.35 0 0 0 7.59 7.6 14 14 0 0 0 5.55 1.11zM424.38 108.58h12.53L440 161.5h-12.16l-1.3-21.59-7.34 21.59H407l-7.75-22.5-1.44 22.46h-12.24l3.43-52.88h12.53l11.59 33.13zM473.12 129.68a18.71 18.71 0 0 1 5.32 6.08 16.32 16.32 0 0 1 .36 14.76 17.86 17.86 0 0 1-4.35 5.73 20.87 20.87 0 0 1-6.45 3.85 21.64 21.64 0 0 1-7.84 1.4h-15.48v-53.06l14 .07a17.06 17.06 0 0 1 6.26 1.16 16.8 16.8 0 0 1 5.18 3.13 14.47 14.47 0 0 1 3.5 4.6 13 13 0 0 1 1.26 5.66 12.68 12.68 0 0 1-1.76 6.62zm-16.28-9.07v4.89h2a5 5 0 0 0 2.88-.87 2.16 2.16 0 0 0 1.08-1.61c0-.49-.36-1-1.08-1.57a4.7 4.7 0 0 0-2.95-.84zm3.32 28.73a10.18 10.18 0 0 0 3.06-.47 9.62 9.62 0 0 0 2.59-1.27 6.42 6.42 0 0 0 1.76-1.85 4.17 4.17 0 0 0 .65-2.21 4.39 4.39 0 0 0-.65-2.25 6.27 6.27 0 0 0-1.76-1.88 9.62 9.62 0 0 0-2.59-1.27 10.18 10.18 0 0 0-3.06-.47h-3.32v11.67zM514 161.5l-2.09-6.4H495.3l-2.16 6.4h-12.89l18-52.84h11.52l17.07 52.84zm-14.54-18.57H508l-4.17-12.82zM547.42 147.83c-.63.09-1.25.16-1.87.21l-1.95.14v13.32h-12.17v-52.63h12.17a23.79 23.79 0 0 1 15.45 5.9 19.53 19.53 0 0 1 4.68 6.18 17.93 17.93 0 0 1-.11 15.43 19.05 19.05 0 0 1-5 6.29l11.66 18.83h-14.36zM543.6 136a12.7 12.7 0 0 0 3.71-.69 11.24 11.24 0 0 0 3.1-1.62 7.84 7.84 0 0 0 2.09-2.34 5.72 5.72 0 0 0 .75-2.84 5.5 5.5 0 0 0-.75-2.81 8.12 8.12 0 0 0-2.09-2.31 11 11 0 0 0-3.1-1.61 12.7 12.7 0 0 0-3.71-.69zM595.36 108.58a25.61 25.61 0 0 1 10.28 2.09 27.34 27.34 0 0 1 8.41 5.65 26.53 26.53 0 0 1 5.68 8.39 26.4 26.4 0 0 1 0 20.59 26.31 26.31 0 0 1-5.68 8.39 27 27 0 0 1-8.41 5.65 26.33 26.33 0 0 1-20.56 0 26.37 26.37 0 0 1-14-14 26.4 26.4 0 0 1 0-20.59 26.37 26.37 0 0 1 14-14 25.61 25.61 0 0 1 10.28-2.17zm0 40.68a14 14 0 0 0 5.55-1.11 14.32 14.32 0 0 0 4.53-3.06 14.51 14.51 0 0 0 3.07-4.54 14.41 14.41 0 0 0 0-11.09 14.58 14.58 0 0 0-3.07-4.53 14.16 14.16 0 0 0-4.53-3.06 14.29 14.29 0 0 0-11.09 0 14.31 14.31 0 0 0-4.54 3.06 14.72 14.72 0 0 0-3.06 4.53 14.41 14.41 0 0 0 0 11.09 14.65 14.65 0 0 0 3.06 4.54 14.48 14.48 0 0 0 4.54 3.06 14 14 0 0 0 5.57 1.11zM104.3 26.65a71 71 0 0 1 28.56 5.8 75.58 75.58 0 0 1 23.37 15.7A73.82 73.82 0 0 1 172 71.45a73.53 73.53 0 0 1 0 57.2A73.82 73.82 0 0 1 156.23 152a75.58 75.58 0 0 1-23.37 15.7 73.22 73.22 0 0 1-57.12 0 73.4 73.4 0 0 1-38.95-39 73.53 73.53 0 0 1 0-57.2 73.4 73.4 0 0 1 38.95-39 71 71 0 0 1 28.56-5.85zm.1 113a38.46 38.46 0 0 0 15.4-3.1 39.84 39.84 0 0 0 21.1-21.1 39.8 39.8 0 0 0 0-30.8 39.84 39.84 0 0 0-21.1-21.1 39.8 39.8 0 0 0-30.8 0 39.84 39.84 0 0 0-21.1 21.1 39.8 39.8 0 0 0 0 30.8 39.84 39.84 0 0 0 21.1 21.1 38.46 38.46 0 0 0 15.4 3.1z"/></svg>